<?xml version="1.0" encoding="UTF-8"?>
<svg id="Layer_1" data-name="Layer 1" xmlns="http://www.w3.org/2000/svg" xmlns:xlink="http://www.w3.org/1999/xlink" viewBox="0 0 283.46 283.46">
  <defs>
    <style>
      .cls-1 {
        fill: url(#linear-gradient);
      }

      .cls-1, .cls-2, .cls-3 {
        stroke-width: 0px;
      }

      .cls-2 {
        fill: url(#linear-gradient-2);
      }

      .cls-3 {
        fill: url(#linear-gradient-3);
      }
    </style>
    <linearGradient id="linear-gradient" x1="85.71" y1="111.47" x2="110.72" y2="136.47" gradientUnits="userSpaceOnUse">
      <stop offset="0" stop-color="#1bff00"/>
      <stop offset="1" stop-color="#13b100"/>
    </linearGradient>
    <linearGradient id="linear-gradient-2" x1="173.78" y1="111.47" x2="198.79" y2="136.47" xlink:href="#linear-gradient"/>
    <linearGradient id="linear-gradient-3" x1="63.27" y1="67.08" x2="222.1" y2="225.9" xlink:href="#linear-gradient"/>
  </defs>
  <circle class="cls-1" cx="98.21" cy="123.97" r="17.68"/>
  <circle class="cls-2" cx="186.29" cy="123.97" r="17.68"/>
  <path class="cls-3" d="M280.84,125.48c0-47.62-38.75-86.37-86.37-86.37h-52.74s-52.74,0-52.74,0C41.37,39.11,2.62,77.86,2.62,125.48c0,2.27-.18,3.37-.15,6.74s0,7.21,0,10.88c0,41.53,17.15,78.35,43.59,101.26.85-18.27,15.84-32.95,34.3-33.04h61.38s61.38,0,61.38,0c18.46.09,33.44,14.77,34.3,33.04,26.43-22.91,43.59-59.73,43.59-101.26,0-3.67-.03-7.51,0-10.88s-.15-4.46-.15-6.74ZM194.47,178.52h-52.74s-52.74,0-52.74,0c-29.23,0-53.01-23.78-53.01-53.01s23.78-53.01,53.01-53.01h52.74s52.74,0,52.74,0c29.23,0,53.01,23.78,53.01,53.01s-23.78,53.01-53.01,53.01Z"/>
</svg>