<?xml version="1.0" encoding="UTF-8"?>
<svg id="Layer_1" data-name="Layer 1" xmlns="http://www.w3.org/2000/svg" xmlns:xlink="http://www.w3.org/1999/xlink" viewBox="0 0 283.46 283.46">
  <defs>
    <style>
      .cls-1 {
        fill: url(#linear-gradient);
      }

      .cls-1, .cls-2, .cls-3, .cls-4 {
        stroke-width: 0px;
      }

      .cls-2 {
        fill: #5ae307;
      }

      .cls-3 {
        fill: url(#linear-gradient-2);
      }

      .cls-4 {
        fill: url(#linear-gradient-3);
      }
    </style>
    <linearGradient id="linear-gradient" x1="99.47" y1="56.5" x2="118.33" y2="75.37" gradientUnits="userSpaceOnUse">
      <stop offset="0" stop-color="#1bff00"/>
      <stop offset="1" stop-color="#13b100"/>
    </linearGradient>
    <linearGradient id="linear-gradient-2" x1="165.91" x2="184.77" y2="75.37" xlink:href="#linear-gradient"/>
    <linearGradient id="linear-gradient-3" x1="82.54" y1="23.02" x2="202.36" y2="142.83" xlink:href="#linear-gradient"/>
  </defs>
  <g>
    <circle class="cls-1" cx="108.9" cy="65.94" r="13.34"/>
    <circle class="cls-3" cx="175.34" cy="65.94" r="13.34"/>
    <path class="cls-4" d="M246.67,67.07C246.67,31.15,217.45,1.92,181.52,1.92h-39.79s-39.79,0-39.79,0c-35.93,0-65.16,29.23-65.16,65.15,0,1.72-.14,2.54-.11,5.08.02,2.54,0,5.44,0,8.21,0,31.33,12.94,59.11,32.88,76.39.64-13.78,11.95-24.86,25.87-24.93h46.3s46.3,0,46.3,0c13.93.07,25.23,11.14,25.87,24.93,19.94-17.28,32.88-45.06,32.88-76.39,0-2.76-.02-5.67,0-8.21.02-2.54-.11-3.37-.11-5.08ZM181.52,107.09h-39.79s-39.79,0-39.79,0c-22.05,0-39.99-17.94-39.99-39.99s17.94-39.99,39.99-39.99h39.79s39.79,0,39.79,0c22.05,0,39.99,17.94,39.99,39.99s-17.94,39.99-39.99,39.99Z"/>
  </g>
  <g>
    <path class="cls-2" d="M49.71,278.71c0,1.81-1.02,2.84-2.83,2.84h-5.22c-1.81,0-2.84-1.02-2.84-2.84v-80.53c0-1.81,1.02-2.84,2.84-2.84h19.74c1.47,0,2.49.45,3.51,1.48l3.86,3.86c1.02,1.02,1.47,2.04,1.47,3.52v34.03c0,1.47-.45,2.5-1.47,3.51l-3.86,3.86c-1.02,1.02-2.04,1.47-3.51,1.47h-11.68v31.64ZM59.35,235.72v-29.04l-2.27-2.27h-7.37v33.57h7.37l2.27-2.27Z"/>
    <path class="cls-2" d="M98.47,272.24c1.81,0,2.84,1.02,2.84,2.84v3.63c0,1.81-1.02,2.84-2.84,2.84h-19.62c-1.81,0-2.84-1.02-2.84-2.84v-80.53c0-1.81,1.02-2.84,2.84-2.84h5.22c1.81,0,2.83,1.02,2.83,2.84v74.06h11.57Z"/>
    <path class="cls-2" d="M139.64,278.6c.23,1.81-.8,2.95-2.72,2.95h-5.56c-1.81,0-2.84-.91-2.95-2.72l-1.81-19.51h-10.21l-1.81,19.51c-.11,1.82-1.13,2.72-2.95,2.72h-5.1c-1.93,0-2.95-1.13-2.72-2.95l9.64-80.64c.23-1.7,1.25-2.61,3.06-2.61h10.21c1.81,0,2.84.91,3.06,2.61l9.87,80.64ZM121.49,206.57l-4.2,43.44h8.39l-4.2-43.44Z"/>
    <path class="cls-2" d="M171.85,278.71c0,1.81-1.02,2.84-2.84,2.84h-21.44c-1.81,0-2.84-1.02-2.84-2.84v-80.53c0-1.81,1.02-2.84,2.84-2.84h21.21c1.81,0,2.83,1.02,2.83,2.84v3.63c0,1.81-1.02,2.84-2.83,2.84h-13.16v28.58h11.12c1.81,0,2.84,1.02,2.84,2.84v3.63c0,1.81-1.02,2.83-2.84,2.83h-11.12v29.72h13.38c1.81,0,2.84,1.02,2.84,2.84v3.63Z"/>
    <path class="cls-2" d="M204.74,278.71c0,1.81-1.02,2.84-2.84,2.84h-21.44c-1.81,0-2.84-1.02-2.84-2.84v-80.53c0-1.81,1.02-2.84,2.84-2.84h21.21c1.81,0,2.83,1.02,2.83,2.84v3.63c0,1.81-1.02,2.84-2.83,2.84h-13.16v28.58h11.12c1.81,0,2.84,1.02,2.84,2.84v3.63c0,1.81-1.02,2.83-2.84,2.83h-11.12v29.72h13.38c1.81,0,2.84,1.02,2.84,2.84v3.63Z"/>
    <path class="cls-2" d="M220.38,278.71c0,1.81-1.02,2.84-2.84,2.84h-4.2c-1.81,0-2.84-1.02-2.84-2.84v-80.53c0-1.81,1.02-2.84,2.84-2.84h6.35c1.81,0,2.83.8,3.17,2.5l11.91,57.28v-56.94c0-1.81,1.02-2.84,2.84-2.84h4.2c1.81,0,2.83,1.02,2.83,2.84v80.53c0,1.81-1.02,2.84-2.83,2.84h-6.35c-1.81,0-2.84-.79-3.18-2.5l-11.91-56.37v56.03Z"/>
  </g>
</svg>