<?xml version="1.0" encoding="UTF-8"?>
<svg id="Layer_1" xmlns="http://www.w3.org/2000/svg" version="1.1" viewBox="0 0 283.46 113.39">
  <!-- Generator: Adobe Illustrator 30.3.0, SVG Export Plug-In . SVG Version: 2.1.3 Build 182)  -->
  <defs>
    <style>
      .st0 {
        fill: #5ae307;
      }
    </style>
  </defs>
  <path class="st0" d="M30.61,105.32c0,2.19-1.23,3.43-3.42,3.43h-6.3c-2.19,0-3.43-1.23-3.43-3.43V8.07c0-2.19,1.23-3.43,3.43-3.43h23.84c1.78,0,3.01.54,4.24,1.79l4.66,4.66c1.23,1.23,1.78,2.46,1.78,4.25v41.09c0,1.78-.54,3.02-1.78,4.24l-4.66,4.66c-1.23,1.23-2.46,1.78-4.24,1.78h-14.1v38.21h-.01ZM42.25,53.4V18.33l-2.74-2.74h-8.9v40.54h8.9l2.74-2.74h0Z"/>
  <path class="st0" d="M89.49,97.5c2.19,0,3.43,1.23,3.43,3.43v4.38c0,2.19-1.23,3.43-3.43,3.43h-23.69c-2.19,0-3.43-1.23-3.43-3.43V8.07c0-2.19,1.23-3.43,3.43-3.43h6.3c2.19,0,3.42,1.23,3.42,3.43v89.43h13.97Z"/>
  <path class="st0" d="M139.21,105.18c.28,2.19-.97,3.56-3.28,3.56h-6.71c-2.19,0-3.43-1.1-3.56-3.28l-2.19-23.56h-12.33l-2.19,23.56c-.13,2.2-1.36,3.28-3.56,3.28h-6.16c-2.33,0-3.56-1.36-3.28-3.56L107.58,7.8c.28-2.05,1.51-3.15,3.7-3.15h12.33c2.19,0,3.43,1.1,3.7,3.15l11.92,97.38h-.01ZM117.29,18.2l-5.07,52.46h10.13l-5.07-52.46h.01Z"/>
  <path class="st0" d="M178.1,105.32c0,2.19-1.23,3.43-3.43,3.43h-25.89c-2.19,0-3.43-1.23-3.43-3.43V8.07c0-2.19,1.23-3.43,3.43-3.43h25.61c2.19,0,3.42,1.23,3.42,3.43v4.38c0,2.19-1.23,3.43-3.42,3.43h-15.89v34.51h13.43c2.19,0,3.43,1.23,3.43,3.43v4.38c0,2.19-1.23,3.42-3.43,3.42h-13.43v35.89h16.16c2.19,0,3.43,1.23,3.43,3.43v4.38h.01Z"/>
  <path class="st0" d="M217.82,105.32c0,2.19-1.23,3.43-3.43,3.43h-25.89c-2.19,0-3.43-1.23-3.43-3.43V8.07c0-2.19,1.23-3.43,3.43-3.43h25.61c2.19,0,3.42,1.23,3.42,3.43v4.38c0,2.19-1.23,3.43-3.42,3.43h-15.89v34.51h13.43c2.19,0,3.43,1.23,3.43,3.43v4.38c0,2.19-1.23,3.42-3.43,3.42h-13.43v35.89h16.16c2.19,0,3.43,1.23,3.43,3.43v4.38h.01Z"/>
  <path class="st0" d="M236.7,105.32c0,2.19-1.23,3.43-3.43,3.43h-5.07c-2.19,0-3.43-1.23-3.43-3.43V8.07c0-2.19,1.23-3.43,3.43-3.43h7.67c2.19,0,3.42.97,3.83,3.02l14.38,69.17V8.07c0-2.19,1.23-3.43,3.43-3.43h5.07c2.19,0,3.42,1.23,3.42,3.43v97.24c0,2.19-1.23,3.43-3.42,3.43h-7.67c-2.19,0-3.43-.95-3.84-3.02l-14.38-68.07v67.66h.01Z"/>
</svg>